<?xml version="1.0" encoding="UTF-8"?>
<svg version="1.1" xmlns="http://www.w3.org/2000/svg" width="500" height="500">
<path d="M0 0 C41.58 0 83.16 0 126 0 C133.59 19.14 141.18 38.28 149 58 C153.42722256 69.15029583 157.85475517 80.30046095 162.28530884 91.44943237 C163.78215812 95.21622652 165.27876147 98.98311838 166.77539062 102.75 C168.96525731 108.26165272 171.15518108 113.77328274 173.34518814 119.28487968 C177.32170536 129.29261194 181.29770562 139.30054949 185.2734375 149.30859375 C185.57180134 150.0596596 185.87016518 150.81072544 186.17757034 151.58455086 C187.68290118 155.37389994 189.1882237 159.16325233 190.69354248 162.9526062 C193.41010521 169.79102485 196.12674182 176.62941415 198.84337234 183.46780586 C200.35391787 187.27020273 201.8644587 191.07260146 203.375 194.875 C203.97916664 196.39583334 204.58333331 197.91666668 205.1875 199.4375 C206.39583333 202.47916667 207.60416667 205.52083333 208.8125 208.5625 C209.11156565 209.31532037 209.41063129 210.06814074 209.71875954 210.84377384 C210.32289456 212.36452764 210.92702944 213.8852815 211.53116417 215.40603542 C213.04206367 219.2093361 214.5529658 223.01263573 216.06387329 226.81593323 C218.77686041 233.64514566 221.48982977 240.47436515 224.20269966 247.30362415 C225.70543251 251.08653589 227.20818093 254.86944144 228.7109375 258.65234375 C229.00878521 259.40211927 229.30663292 260.1518948 229.61350632 260.92439079 C234.59215234 273.45708917 239.57204538 285.98929175 244.5523243 298.52134132 C247.95729211 307.08945613 251.36174988 315.65777281 254.7644043 324.22680664 C255.2070514 325.34153618 255.2070514 325.34153618 255.65864086 326.47878551 C256.82837515 329.42460736 257.9980903 332.3704368 259.16770744 335.31630516 C262.39545662 343.44581501 265.62551257 351.57439424 268.86156082 359.70060444 C270.93069352 364.89668249 272.99681733 370.09395187 275.06170654 375.29171753 C275.88718717 377.36782567 276.71386328 379.44345893 277.54180908 381.51858521 C278.65204956 384.30154089 279.75819855 387.08608683 280.86328125 389.87109375 C281.18668991 390.67864105 281.51009857 391.48618835 281.8433075 392.31820679 C284 397.77183309 284 397.77183309 284 400 C284.72026367 399.75467529 285.44052734 399.50935059 286.18261719 399.2565918 C301.94923215 393.90340824 317.76864838 388.75801294 333.6875 383.875 C334.48256958 383.62962494 335.27763916 383.38424988 336.09680176 383.13143921 C338.35868584 382.43443198 340.62232024 381.74347616 342.88671875 381.0546875 C343.56355209 380.84579391 344.24038544 380.63690033 344.93772888 380.42167664 C347.74567723 379.57532006 350.04718897 379 353 379 C355.85622298 387.76083732 358.70780475 396.5231677 361.55351925 405.28742409 C362.87512831 409.35723456 364.19831312 413.42651836 365.52514648 417.49462891 C366.80622703 421.42265897 368.08310621 425.3520321 369.35711861 429.28236008 C369.84322163 430.77949702 370.33082095 432.27614901 370.81995964 433.77229691 C371.50628918 435.87247598 372.18721501 437.97433686 372.86694336 440.07666016 C373.4498539 441.8686937 373.4498539 441.8686937 374.04454041 443.69692993 C374.94121128 446.79676455 375.54417532 449.8086013 376 453 C341.52405649 464.12434968 307.02055026 475.15361796 272.46246338 486.02050781 C266.60578852 487.86259082 260.75131265 489.71125671 254.90060425 491.57220459 C251.84510165 492.54362672 248.78831349 493.51095224 245.73120117 494.47729492 C244.39040141 494.90223122 243.05020835 495.32908759 241.71069336 495.75805664 C239.93767795 496.32563289 238.16227198 496.88572588 236.38671875 497.4453125 C235.42983154 497.74969238 234.47294434 498.05407227 233.48706055 498.36767578 C231 499 231 499 227 499 C219.16313796 479.95451624 211.557614 460.82329145 204.01600647 441.65942383 C200.27094 432.14388905 196.51065155 422.63438363 192.75 413.125 C192.03954157 411.32812864 191.32909242 409.53125362 190.61865234 407.734375 C184.44955696 392.13225669 178.27446358 376.53251286 172.09790039 360.93334961 C168.23202474 351.16930995 164.36850112 341.40435422 160.51171875 331.63671875 C151.73118451 309.40158259 142.90247349 287.18661642 134 265 C126.80906958 273.96598892 120.38121625 283.36023792 114.03393555 292.93212891 C108.71609558 300.94572745 103.33598482 308.91564005 97.9375 316.875 C97.49248138 317.53128387 97.04746277 318.18756775 96.58895874 318.86373901 C94.3027752 322.23516061 92.01606543 325.60622473 89.72900391 328.97705078 C85.78985118 334.78325159 81.85467033 340.59214273 77.91970825 346.40118408 C76.61898672 348.32137711 75.31816198 350.24150019 74.01733398 352.16162109 C67.50731083 361.77154366 61.00290843 371.385262 54.5 381 C46.27100328 393.16680942 38.0391377 405.33166599 29.79760742 417.48999023 C25.79076099 423.40148872 21.78609537 429.31441677 17.79046631 435.23350525 C15.91595211 438.01011177 14.04007885 440.78579888 12.16412354 443.56143188 C11.28418012 444.86418125 10.40487438 446.16736164 9.52630615 447.47103882 C9.11398743 448.0828299 8.7016687 448.69462097 8.27685547 449.32495117 C7.92082245 449.85368332 7.56478943 450.38241547 7.19796753 450.9271698 C6.38977172 452.1189512 5.57366097 453.30553263 4.74037075 454.47990513 C2.63616372 457.47562502 0.74511347 460.41201266 -0.86369324 463.70375061 C-3.35036723 468.42670724 -5.96821108 472.94779522 -11.23069572 474.77417946 C-17.97938303 475.99419747 -24.81180438 475.60506887 -31.6328125 475.3671875 C-33.83806042 475.34104547 -36.04339017 475.32113127 -38.24874878 475.30715942 C-44.02791485 475.25393431 -49.8020819 475.11664194 -55.57928467 474.96130371 C-61.48446012 474.81757008 -67.39045109 474.75403869 -73.296875 474.68359375 C-84.86676901 474.53385845 -96.43296742 474.29522228 -108 474 C-106.2982061 469.52981501 -104.01021772 465.72186029 -101.375 461.75 C-100.37940988 460.23099177 -99.38467119 458.71142528 -98.390625 457.19140625 C-97.84857422 456.36398926 -97.30652344 455.53657227 -96.74804688 454.68408203 C-93.5065905 449.70690726 -90.32022035 444.69442748 -87.125 439.6875 C-80.62168637 429.51133844 -74.06154357 419.37371148 -67.46875 409.25537109 C-59.93402545 397.68526049 -52.47911524 386.06504173 -45.04370117 374.4309082 C-40.37435574 367.13102331 -35.66700375 359.8571587 -30.93408203 352.59838867 C-26.58640018 345.9220206 -22.28899725 339.21418675 -18 332.5 C-11.53861022 322.3861184 -5.02057265 312.31083105 1.53125 302.25537109 C9.06597455 290.68526049 16.52088476 279.06504173 23.95629883 267.4309082 C28.62564426 260.13102331 33.33299625 252.8571587 38.06591797 245.59838867 C42.41359957 238.922021 46.71104278 232.21421196 51 225.5 C56.31078149 217.18615801 61.65383636 208.89510001 67.04443359 200.6328125 C70.13818464 195.88413036 73.20811136 191.12083344 76.2578125 186.34375 C76.6207843 185.775354 76.9837561 185.20695801 77.35772705 184.62133789 C79.1439015 181.8233059 80.92777108 179.02385204 82.70898438 176.22265625 C83.35416016 175.21074219 83.99933594 174.19882813 84.6640625 173.15625 C85.23592285 172.25712891 85.8077832 171.35800781 86.39697266 170.43164062 C88 168 88 168 89.77099609 166.17773438 C91.72599285 162.71357644 90.8822014 159.69361595 90 156 C88.6980911 151.42263195 87.21213089 146.9151176 85.703125 142.40234375 C85.2674912 141.08228682 84.83250608 139.76201567 84.39813232 138.44154358 C83.255778 134.97475795 82.10461349 131.51096151 80.95153809 128.04772949 C79.79561728 124.57071488 78.64820251 121.09089742 77.5 117.61132812 C73.35713798 105.06628652 69.17781731 92.53345194 65 80 C32.825 79.505 32.825 79.505 0 79 C0 52.93 0 26.86 0 0 Z " fill="#FA7E14" transform="translate(123,0)"/>
<path d="M0 0 C0.66 0 1.32 0 2 0 C2 25.41 2 50.82 2 77 C22.97234171 77.2893315 22.97234171 77.2893315 43.94482422 77.56811523 C46.56478426 77.60622403 49.18473911 77.64469194 51.8046875 77.68359375 C52.48782013 77.69173599 53.17095276 77.69987823 53.87478638 77.70826721 C55.88256686 77.73256897 57.89026391 77.76348858 59.89794922 77.79467773 C61.59671707 77.81799416 61.59671707 77.81799416 63.32980347 77.84178162 C66 78 66 78 68 79 C68.81266138 81.4915662 69.40717932 84.00798201 70.0234375 86.5546875 C70.78400445 89.14655557 70.78400445 89.14655557 73.0859375 90.33984375 C75 92 75 92 75.390625 95.57421875 C75.3641199 96.94585748 75.3165309 98.31721938 75.25 99.6875 C75.23195313 100.38939453 75.21390625 101.09128906 75.1953125 101.81445312 C75.14826213 103.54355436 75.07651873 105.27195205 75 107 C69.67629073 99.0144361 68.03498124 89.10494371 65 80 C43.55 79.67 22.1 79.34 0 79 C0 52.93 0 26.86 0 0 Z " fill="#E3904A" transform="translate(123,0)"/>
<path d="M0 0 C1.125 3.75 1.125 3.75 0 6 C3.89207781 8.59471854 7.176849 8.3072327 11.6940918 8.31884766 C12.5821048 8.32889328 13.4701178 8.3389389 14.38504028 8.34928894 C17.32309313 8.3802038 20.26105451 8.39717915 23.19921875 8.4140625 C25.2351816 8.43276747 27.27113664 8.45234037 29.30708313 8.4727478 C34.66805425 8.5241459 40.02905052 8.56373053 45.39013672 8.60089111 C50.85976422 8.64088265 56.32928639 8.69199709 61.79882812 8.7421875 C72.53247817 8.8390377 83.26618759 8.92341337 94 9 C93.67 9.66 93.34 10.32 93 11 C60.33 11 27.66 11 -6 11 C-4.31482096 6.7870524 -2.56523798 3.67684111 0 0 Z " fill="#EFAE71" transform="translate(21,463)"/>
<path d="M0 0 C1.3661521 4.12112917 2.71587637 8.24745244 4.0625 12.375 C4.64741211 14.1384375 4.64741211 14.1384375 5.24414062 15.9375 C5.60830078 17.05898438 5.97246094 18.18046875 6.34765625 19.3359375 C6.68804932 20.37282715 7.02844238 21.4097168 7.37915039 22.47802734 C8 25 8 25 7 27 C5 26 5 26 3.875 23.875 C2.84054886 20.47608911 2.8614278 17.53359114 3 14 C2.01 14.33 1.02 14.66 0 15 C-0.33 14.01 -0.66 13.02 -1 12 C-1.99 12 -2.98 12 -4 12 C-3.43945339 8.63672037 -2.58158962 6.00887781 -1 3 C-1.71285156 3.13277344 -2.42570312 3.26554687 -3.16015625 3.40234375 C-8.43010955 4.37405788 -13.6880905 5.2917454 -19 6 C-15.82848903 3.88565935 -13.13567139 2.98044063 -9.5 1.875 C-8.3553125 1.52179688 -7.210625 1.16859375 -6.03125 0.8046875 C-3 0 -3 0 0 0 Z " fill="#F1811E" transform="translate(476,379)"/>
<path d="M0 0 C0.99 0 1.98 0 3 0 C3.33 2.64 3.66 5.28 4 8 C8.12087581 7.76746621 8.12087581 7.76746621 11.25 5.46875 C14.02513849 3.13961591 16.65709035 3.71533276 20.1875 3.8125 C22.09595703 3.85310547 22.09595703 3.85310547 24.04296875 3.89453125 C25.50669922 3.94673828 25.50669922 3.94673828 27 4 C23.52778475 6.31481017 20.0076566 7.41001892 16.0625 8.625 C15.34642578 8.85445313 14.63035156 9.08390625 13.89257812 9.3203125 C10.40903032 10.40508735 7.68101033 11 4 11 C3.32880451 9.5437455 2.66318193 8.08492133 2 6.625 C1.62875 5.81289063 1.2575 5.00078125 0.875 4.1640625 C0 2 0 2 0 0 Z " fill="#EEA462" transform="translate(346,488)"/>
<path d="M0 0 C0.66 1.32 1.32 2.64 2 4 C2.66 4 3.32 4 4 4 C4.33 3.34 4.66 2.68 5 2 C4.95875 3.216875 4.9175 4.43375 4.875 5.6875 C4.88752639 9.2262055 5.16728467 11.88438394 7 15 C8.32520503 15.68268138 9.65812182 16.3507041 11 17 C12.42898312 19.85796624 11.9610729 21.13494727 11.0625 24.25 C10.711875 25.1575 10.36125 26.065 10 27 C10.66 27.33 11.32 27.66 12 28 C11.34 28.66 10.68 29.32 10 30 C8.40293791 26.21472333 6.81841763 22.4244685 5.24536133 18.62915039 C4.70842598 17.33865574 4.16807852 16.04957528 3.62426758 14.76196289 C2.8434227 12.91146749 2.07581668 11.05540326 1.30859375 9.19921875 C0.84251709 8.08377686 0.37644043 6.96833496 -0.10375977 5.8190918 C-1 3 -1 3 0 0 Z " fill="#F09F56" transform="translate(313,401)"/>
<path d="M0 0 C0.99 0 1.98 0 3 0 C3.25523437 1.03060547 3.25523437 1.03060547 3.515625 2.08203125 C3.75796875 2.98308594 4.0003125 3.88414063 4.25 4.8125 C4.48203125 5.70582031 4.7140625 6.59914063 4.953125 7.51953125 C5.78358915 10.13964888 5.78358915 10.13964888 8.09375 11.34375 C10 13 10 13 10.390625 16.57421875 C10.3641199 17.94585748 10.3165309 19.31721938 10.25 20.6875 C10.23195312 21.38939453 10.21390625 22.09128906 10.1953125 22.81445312 C10.14826213 24.54355436 10.07651873 26.27195205 10 28 C8.01088183 25.01632274 7.12471828 22.63821777 6.0546875 19.23828125 C5.70019531 18.12001953 5.34570312 17.00175781 4.98046875 15.84960938 C4.61566406 14.68236328 4.25085938 13.51511719 3.875 12.3125 C3.50246094 11.13365234 3.12992188 9.95480469 2.74609375 8.74023438 C1.82648241 5.82813181 0.91130245 2.91471129 0 0 Z " fill="#F19C52" transform="translate(188,79)"/>
<path d="M0 0 C0.99 0 1.98 0 3 0 C1.3603294 4.94811838 -1.48111014 8.89277566 -4.4375 13.125 C-5.17323242 14.19814453 -5.17323242 14.19814453 -5.92382812 15.29296875 C-8.11133812 18.45172138 -10.21099895 21.33997305 -13 24 C-13 22.02 -13 20.04 -13 18 C-12.34 18 -11.68 18 -11 18 C-11 17.34 -11 16.68 -11 16 C-10.01 16 -9.02 16 -8 16 C-8 15.01 -8 14.02 -8 13 C-7.34 13 -6.68 13 -6 13 C-6 11.35 -6 9.7 -6 8 C-4.68 7.67 -3.36 7.34 -2 7 C-2.04125 6.21625 -2.0825 5.4325 -2.125 4.625 C-2 2 -2 2 0 0 Z " fill="#F09F57" transform="translate(241,281)"/>
<path d="M0 0 C-0.84304688 0.26554687 -1.68609375 0.53109375 -2.5546875 0.8046875 C-4.19824219 1.33449219 -4.19824219 1.33449219 -5.875 1.875 C-7.51082031 2.39707031 -7.51082031 2.39707031 -9.1796875 2.9296875 C-12.08522723 3.81175231 -12.08522723 3.81175231 -14 6 C-20.0296248 8.77898141 -25.42929266 9.31289083 -32 9 C-27.28303449 5.85535633 -21.93347395 4.53856173 -16.5625 2.8125 C-15.41716797 2.43158203 -14.27183594 2.05066406 -13.09179688 1.65820312 C-11.99029297 1.30306641 -10.88878906 0.94792969 -9.75390625 0.58203125 C-8.74658447 0.25436768 -7.7392627 -0.0732959 -6.70141602 -0.41088867 C-3.98016127 -1.00432633 -2.58171695 -0.94254378 0 0 Z " fill="#EFA260" transform="translate(457,386)"/>
<path d="M0 0 C0.6875 1.8125 0.6875 1.8125 1 4 C0.54625 4.433125 0.0925 4.86625 -0.375 5.3125 C-2.36149531 7.008486 -2.36149531 7.008486 -2.1875 10.3125 C-3.25095984 15.13897159 -5.31976157 16.26444408 -9.28515625 18.93359375 C-9.85105469 19.28550781 -10.41695312 19.63742187 -11 20 C-11 16.72407709 -10.55189649 15.91985142 -8.84765625 13.2421875 C-8.40099609 12.53449219 -7.95433594 11.82679688 -7.49414062 11.09765625 C-7.02169922 10.36417969 -6.54925781 9.63070313 -6.0625 8.875 C-5.59392578 8.13378906 -5.12535156 7.39257812 -4.64257812 6.62890625 C-1.18268327 1.18268327 -1.18268327 1.18268327 0 0 Z " fill="#F19645" transform="translate(65,395)"/>
<path d="M0 0 C1.32 0.33 2.64 0.66 4 1 C2.19295245 3.67039992 0.37847738 6.33566639 -1.4375 9 C-1.95376953 9.763125 -2.47003906 10.52625 -3.00195312 11.3125 C-3.49501953 12.034375 -3.98808594 12.75625 -4.49609375 13.5 C-4.95169678 14.1703125 -5.4072998 14.840625 -5.87670898 15.53125 C-6.24739502 16.0159375 -6.61808105 16.500625 -7 17 C-7.33 17 -7.66 17 -8 17 C-8.125 14.125 -8.125 14.125 -8 11 C-7.34 10.34 -6.68 9.68 -6 9 C-5.01 9 -4.02 9 -3 9 C-3.33 6.69 -3.66 4.38 -4 2 C-3.34 1.67 -2.68 1.34 -2 1 C-2 1.66 -2 2.32 -2 3 C-1.34 3 -0.68 3 0 3 C0 2.01 0 1.02 0 0 Z " fill="#F29647" transform="translate(212,323)"/>
<path d="M0 0 C0.66 0 1.32 0 2 0 C2.33 1.65 2.66 3.3 3 5 C3.66 5 4.32 5 5 5 C5 6.65 5 8.3 5 10 C5.66 10 6.32 10 7 10 C7 11.98 7 13.96 7 16 C7.66 16 8.32 16 9 16 C9.33 18.97 9.66 21.94 10 25 C8.28012028 22.42018041 7.1971796 20.25063609 6.0546875 17.40234375 C5.52294922 16.07686523 5.52294922 16.07686523 4.98046875 14.72460938 C4.61566406 13.80486328 4.25085938 12.88511719 3.875 11.9375 C3.31619141 10.55208008 3.31619141 10.55208008 2.74609375 9.13867188 C2.39417969 8.25630859 2.04226563 7.37394531 1.6796875 6.46484375 C1.35726074 5.656521 1.03483398 4.84819824 0.70263672 4.01538086 C0 2 0 2 0 0 Z " fill="#EFA059" transform="translate(258,265)"/>
<path d="M0 0 C0.99 0.66 1.98 1.32 3 2 C1.42686828 6.72843614 -1.20641235 10.3433843 -4.125 14.3125 C-4.59292969 14.95767578 -5.06085938 15.60285156 -5.54296875 16.26757812 C-6.6905929 17.84848894 -7.84465477 19.42472301 -9 21 C-9.33 19.68 -9.66 18.36 -10 17 C-9.34 17 -8.68 17 -8 17 C-8.33 16.01 -8.66 15.02 -9 14 C-8.34 14 -7.68 14 -7 14 C-6.67 12.68 -6.34 11.36 -6 10 C-4.68 9.67 -3.36 9.34 -2 9 C-2 8.01 -2 7.02 -2 6 C-1.34 6 -0.68 6 0 6 C0 4.02 0 2.04 0 0 Z " fill="#EE984D" transform="translate(147,418)"/>
<path d="M0 0 C0.79596365 2.69138789 1.04361747 3.83346058 0.3125 6.625 C-1.20873076 9.37770328 -2.26038951 9.67438202 -5 11 C-5.74276031 12.97080157 -5.74276031 12.97080157 -6 15 C-6.33 15.66 -6.66 16.32 -7 17 C-7.99 17 -8.98 17 -10 17 C-8.51364884 12.78345644 -6.38750841 9.37521395 -3.875 5.6875 C-3.15054688 4.61886719 -2.42609375 3.55023438 -1.6796875 2.44921875 C-0.84824219 1.23685547 -0.84824219 1.23685547 0 0 Z " fill="#F09B51" transform="translate(52,415)"/>
<path d="M0 0 C2.23915618 3.35873427 3.69032729 6.8389434 5.1875 10.5625 C5.47302734 11.24763672 5.75855469 11.93277344 6.05273438 12.63867188 C6.76394161 14.4019813 7.38874045 16.19960071 8 18 C7.67 18.66 7.34 19.32 7 20 C4.52311424 18.48190873 3.18966089 17.66381313 2.375 14.8125 C2.189375 13.4203125 2.189375 13.4203125 2 12 C1.48944912 9.98191699 0.94736348 7.97385808 0.40234375 5.96484375 C0 4 0 4 0 0 Z " fill="#EFA15E" transform="translate(370,307)"/>
<path d="M0 0 C2.23915618 3.35873427 3.69032729 6.8389434 5.1875 10.5625 C5.47302734 11.24763672 5.75855469 11.93277344 6.05273438 12.63867188 C6.76394161 14.4019813 7.38874045 16.19960071 8 18 C7.67 18.66 7.34 19.32 7 20 C5 19 5 19 4 16 C3.34 15.67 2.68 15.34 2 15 C1.3671875 12.63671875 1.3671875 12.63671875 0.875 9.6875 C0.70742188 8.72199219 0.53984375 7.75648438 0.3671875 6.76171875 C0 4 0 4 0 0 Z " fill="#EF9A4F" transform="translate(320,181)"/>
<path d="M0 0 C2.23915618 3.35873427 3.69032729 6.8389434 5.1875 10.5625 C5.47302734 11.24763672 5.75855469 11.93277344 6.05273438 12.63867188 C6.76394161 14.4019813 7.38874045 16.19960071 8 18 C7.67 18.66 7.34 19.32 7 20 C2 14.25 2 14.25 2 12 C1.34 11.67 0.68 11.34 0 11 C0 7.37 0 3.74 0 0 Z " fill="#F09B51" transform="translate(250,5)"/>
<path d="M0 0 C2.23915618 3.35873427 3.69032729 6.8389434 5.1875 10.5625 C5.47302734 11.24763672 5.75855469 11.93277344 6.05273438 12.63867188 C6.76394161 14.4019813 7.38874045 16.19960071 8 18 C7.67 18.66 7.34 19.32 7 20 C3.10777401 17.40518268 3.16205025 15.41579095 2 11 C1.34 10.01 0.68 9.02 0 8 C-0.25760279 5.30547479 -0.08900053 2.71451625 0 0 Z " fill="#F09D53" transform="translate(341,234)"/>
<path d="M0 0 C2.08163365 3.12245047 3.32575613 6.07034881 4.6875 9.5625 C5.14511719 10.71878906 5.60273438 11.87507812 6.07421875 13.06640625 C7 16 7 16 6 18 C3.01058532 16.50529266 2.46221468 13.92442937 1 11 C0.34 10.67 -0.32 10.34 -1 10 C-0.67 6.7 -0.34 3.4 0 0 Z " fill="#EF984B" transform="translate(299,128)"/>
<path d="M0 0 C2.23915618 3.35873427 3.69032729 6.8389434 5.1875 10.5625 C5.47302734 11.24763672 5.75855469 11.93277344 6.05273438 12.63867188 C6.76394161 14.4019813 7.38874045 16.19960071 8 18 C7.67 18.66 7.34 19.32 7 20 C6.34 19.67 5.68 19.34 5 19 C5 18.01 5 17.02 5 16 C4.34 16 3.68 16 3 16 C2.49411853 14.08487728 1.99551609 12.16783078 1.5 10.25 C1.2215625 9.18265625 0.943125 8.1153125 0.65625 7.015625 C0 4 0 4 0 0 Z " fill="#EF9C54" transform="translate(360,282)"/>
<path d="M0 0 C0.103125 0.639375 0.20625 1.27875 0.3125 1.9375 C0.539375 2.618125 0.76625 3.29875 1 4 C1.99 4.33 2.98 4.66 4 5 C4.36504603 6.58086048 4.71660506 8.16483907 5.0625 9.75 C5.25972656 10.63171875 5.45695312 11.5134375 5.66015625 12.421875 C5.99825872 14.98679028 5.81158635 16.57091639 5 19 C3.96520787 16.58848443 2.9470628 14.17205531 1.9375 11.75 C1.49567383 10.72712891 1.49567383 10.72712891 1.04492188 9.68359375 C-0.48321625 5.98010605 -1.24129373 3.8159653 0 0 Z " fill="#EF9B53" transform="translate(340,468)"/>
<path d="M0 0 C0.69921875 1.6484375 0.69921875 1.6484375 1 4 C-0.29296875 6.7265625 -0.29296875 6.7265625 -2.1875 9.625 C-3.10595703 11.06746094 -3.10595703 11.06746094 -4.04296875 12.5390625 C-5.95205125 14.93970517 -7.17197409 15.93400354 -10 17 C-8.51364884 12.78345644 -6.38750841 9.37521395 -3.875 5.6875 C-3.15054688 4.61886719 -2.42609375 3.55023438 -1.6796875 2.44921875 C-0.84824219 1.23685547 -0.84824219 1.23685547 0 0 Z " fill="#ECA15D" transform="translate(119,311)"/>
<path d="M0 0 C0.66 2.64 1.32 5.28 2 8 C0.5 6.625 0.5 6.625 -1 5 C-1 4.34 -1 3.68 -1 3 C-1.71285156 3.13277344 -2.42570312 3.26554687 -3.16015625 3.40234375 C-8.43010955 4.37405788 -13.6880905 5.2917454 -19 6 C-15.82848903 3.88565935 -13.13567139 2.98044063 -9.5 1.875 C-8.3553125 1.52179688 -7.210625 1.16859375 -6.03125 0.8046875 C-3 0 -3 0 0 0 Z " fill="#EFAE72" transform="translate(476,379)"/>
<path d="M0 0 C0.99 0.33 1.98 0.66 3 1 C4.16796875 3.36328125 4.16796875 3.36328125 5.1875 6.3125 C5.53167969 7.27800781 5.87585938 8.24351562 6.23046875 9.23828125 C7 12 7 12 7 16 C7.66 16.33 8.32 16.66 9 17 C8.34 17.99 7.68 18.98 7 20 C5.8278551 17.04380781 4.66322524 14.08471211 3.5 11.125 C3.16613281 10.28324219 2.83226562 9.44148438 2.48828125 8.57421875 C2.01455078 7.36572266 2.01455078 7.36572266 1.53125 6.1328125 C1.23798828 5.38918457 0.94472656 4.64555664 0.64257812 3.87939453 C0 2 0 2 0 0 Z " fill="#EEA260" transform="translate(286,336)"/>
<path d="M0 0 C1.79378179 2.69067269 2.97313958 5.08578257 4.1875 8.0625 C4.55230469 8.94035156 4.91710937 9.81820312 5.29296875 10.72265625 C6 13 6 13 5 15 C1.9890638 12.9927092 1.36983503 12.16115776 0 9 C-0.99 9.495 -0.99 9.495 -2 10 C-2.66 9.34 -3.32 8.68 -4 8 C-3.01 7.67 -2.02 7.34 -1 7 C-0.67 4.69 -0.34 2.38 0 0 Z " fill="#F0984C" transform="translate(283,88)"/>
<path d="M0 0 C1.90318884 2.85478326 2.4619099 4.41941308 3.125 7.6875 C3.29257812 8.49574219 3.46015625 9.30398438 3.6328125 10.13671875 C3.75398438 10.75160156 3.87515625 11.36648438 4 12 C1.36 12.66 -1.28 13.32 -4 14 C-3.67 13.01 -3.34 12.02 -3 11 C-2.01 11 -1.02 11 0 11 C0 7.37 0 3.74 0 0 Z " fill="#EEB077" transform="translate(495,441)"/>
<path d="M0 0 C2.08163365 3.12245047 3.32575613 6.07034881 4.6875 9.5625 C5.14511719 10.71878906 5.60273438 11.87507813 6.07421875 13.06640625 C7 16 7 16 6 18 C5.34 17.01 4.68 16.02 4 15 C3.01 15.495 3.01 15.495 2 16 C1.21604632 12.39644819 0.74733686 8.86127988 0.4375 5.1875 C0.35371094 4.21167969 0.26992188 3.23585938 0.18359375 2.23046875 C0.12300781 1.49441406 0.06242187 0.75835937 0 0 Z " fill="#EE9C52" transform="translate(386,347)"/>
<path d="M0 0 C1.31223496 3.93670488 0.24296256 6.12488144 -1 10 C-2.32 10.33 -3.64 10.66 -5 11 C-5 11.66 -5 12.32 -5 13 C-5.99 13.33 -6.98 13.66 -8 14 C-6.6744419 10.37723685 -5.05653045 7.36494652 -2.875 4.1875 C-2.33617187 3.39730469 -1.79734375 2.60710937 -1.2421875 1.79296875 C-0.83226562 1.20128906 -0.42234375 0.60960937 0 0 Z " fill="#F29C50" transform="translate(161,246)"/>
<path d="M0 0 C1.65 0 3.3 0 5 0 C-0.0022779 9.59453303 -0.0022779 9.59453303 -4 13 C-4.25 10.1875 -4.25 10.1875 -4 7 C-2 5.375 -2 5.375 0 4 C0 2.68 0 1.36 0 0 Z " fill="#F09D53" transform="translate(194,348)"/>
<path d="M0 0 C0.66 0 1.32 0 2 0 C0.44298069 4.67105792 -2.08447373 8.08705685 -5 12 C-6.22419163 8.06204091 -5.48320272 5.83887763 -4 2 C-2.68 2 -1.36 2 0 2 C0 1.34 0 0.68 0 0 Z " fill="#EE9B4F" transform="translate(177,377)"/>
<path d="M0 0 C1.79378179 2.69067269 2.97313958 5.08578257 4.1875 8.0625 C4.55230469 8.94035156 4.91710937 9.81820312 5.29296875 10.72265625 C6 13 6 13 5 15 C2.525 14.01 2.525 14.01 0 13 C0 8.71 0 4.42 0 0 Z " fill="#F29C52" transform="translate(258,25)"/>
<path d="M0 0 C0.33 0 0.66 0 1 0 C1 1.65 1 3.3 1 5 C0.34 5 -0.32 5 -1 5 C-1.33 6.98 -1.66 8.96 -2 11 C-3.65 11.33 -5.3 11.66 -7 12 C-5.48109469 7.44328408 -3.04597738 3.68276708 0 0 Z " fill="#F09A51" transform="translate(76,378)"/>
<path d="M0 0 C1.79378179 2.69067269 2.97313958 5.08578257 4.1875 8.0625 C4.55230469 8.94035156 4.91710937 9.81820313 5.29296875 10.72265625 C6 13 6 13 5 15 C2.5 13.6875 2.5 13.6875 0 11 C-0.45251957 7.29998705 -0.28783441 3.70986572 0 0 Z " fill="#F0A057" transform="translate(378,327)"/>
<path d="M0 0 C0.66 0 1.32 0 2 0 C2.73679858 1.70803308 3.47228553 3.41665123 4.19921875 5.12890625 C4.84397614 6.63543694 5.51207936 8.13196491 6.1875 9.625 C7.07530939 12.22013513 7.15563499 14.27638769 7 17 C4.42033404 14.42033404 3.66390156 11.90692108 2.375 8.5 C1.92898438 7.3346875 1.48296875 6.169375 1.0234375 4.96875 C0 2 0 2 0 0 Z " fill="#EDA15E" transform="translate(277,313)"/>
<path d="M0 0 C1.32 0.66 2.64 1.32 4 2 C1.69 5.3 -0.62 8.6 -3 12 C-4.27099045 8.18702864 -3.45398157 6.6732166 -2 3 C-1.34 2.01 -0.68 1.02 0 0 Z " fill="#F1994E" transform="translate(221,309)"/>
<path d="M0 0 C1.38308641 2.76617283 0.90563946 4.07408791 0 7 C-1.29233607 8.37310707 -2.62437146 9.71034824 -4 11 C-4.33 11.99 -4.66 12.98 -5 14 C-5.99 14 -6.98 14 -8 14 C-6.6744419 10.37723685 -5.05653045 7.36494652 -2.875 4.1875 C-2.33617187 3.39730469 -1.79734375 2.60710937 -1.2421875 1.79296875 C-0.83226562 1.20128906 -0.42234375 0.60960937 0 0 Z " fill="#F09E55" transform="translate(143,274)"/>
<path d="M0 0 C1.79378179 2.69067269 2.97313958 5.08578257 4.1875 8.0625 C4.55230469 8.94035156 4.91710937 9.81820312 5.29296875 10.72265625 C6 13 6 13 5 15 C2 13 2 13 1.3125 9.875 C1.209375 8.92625 1.10625 7.9775 1 7 C-0.32 6.67 -1.64 6.34 -3 6 C-2.67 5.34 -2.34 4.68 -2 4 C-1.34 4.33 -0.68 4.66 0 5 C0 3.35 0 1.7 0 0 Z " fill="#F09B50" transform="translate(277,73)"/>
<path d="M0 0 C2.06947096 3.10420644 3.32446144 6.0318675 4.6875 9.5 C5.14511719 10.6446875 5.60273438 11.789375 6.07421875 12.96875 C7 16 7 16 6 19 C-0.60080568 5.85785536 -0.60080568 5.85785536 0 0 Z " fill="#EDA05C" transform="translate(270,55)"/>
<path d="M0 0 C3.2578125 -0.29296875 3.2578125 -0.29296875 7.125 -0.1875 C9.04699219 -0.14689453 9.04699219 -0.14689453 11.0078125 -0.10546875 C11.99523437 -0.07066406 12.98265625 -0.03585937 14 0 C10.05034431 2.6331038 7.45124115 3.12274339 2.8125 3.0625 C1.46091797 3.04896484 1.46091797 3.04896484 0.08203125 3.03515625 C-0.60503906 3.02355469 -1.29210937 3.01195312 -2 3 C-1.34 2.01 -0.68 1.02 0 0 Z " fill="#F2923B" transform="translate(359,492)"/>
<path d="M0 0 C4.89297297 5.68216216 4.89297297 5.68216216 5 9 C4.03935377 10.36196058 3.04148828 11.69881594 2 13 C1.46845258 11.39935157 0.95011647 9.79431126 0.4375 8.1875 C0.14746094 7.29417969 -0.14257812 6.40085937 -0.44140625 5.48046875 C-1 3 -1 3 0 0 Z " fill="#F29646" transform="translate(272,295)"/>
<path d="M0 0 C2.12075567 3.18113351 3.06017176 5.92004956 4.1875 9.5625 C4.55230469 10.71878906 4.91710937 11.87507813 5.29296875 13.06640625 C6 16 6 16 5 18 C3 17 3 17 1.9140625 14.83203125 C0.91031683 11.72213549 0.58975404 8.94460302 0.375 5.6875 C0.26285156 4.08455078 0.26285156 4.08455078 0.1484375 2.44921875 C0.09945313 1.64097656 0.05046875 0.83273437 0 0 Z " fill="#F0A35E" transform="translate(478,388)"/>
<path d="M0 0 C0.33 0 0.66 0 1 0 C1.33 2.64 1.66 5.28 2 8 C-0.49064888 8.68707555 -2.37886292 9 -5 9 C-3.75471468 5.55151758 -2.38532951 2.80016942 0 0 Z " fill="#F19544" transform="translate(125,302)"/>
<path d="M0 0 C0.91058531 3.07322544 1.08886184 5.80097361 1 9 C-1.31 9.66 -3.62 10.32 -6 11 C-4.54955729 6.89041233 -2.48889248 3.56741255 0 0 Z " fill="#F29749" transform="translate(188,204)"/>
<path d="M0 0 C1.79378179 2.69067269 2.97313958 5.08578257 4.1875 8.0625 C4.55230469 8.94035156 4.91710937 9.81820312 5.29296875 10.72265625 C6 13 6 13 5 15 C4.01 14.34 3.02 13.68 2 13 C1.8125 9.875 1.8125 9.875 2 7 C1.34 7 0.68 7 0 7 C0 4.69 0 2.38 0 0 Z " fill="#EFA05B" transform="translate(289,103)"/>
<path d="M0 0 C-2.79916389 1.86610926 -4.81938269 2.68785383 -8 3.625 C-9.299375 4.01558594 -9.299375 4.01558594 -10.625 4.4140625 C-13 5 -13 5 -16 5 C-16 4.34 -16 3.68 -16 3 C-11.23513188 -0.17657874 -5.6216797 -0.17567749 0 0 Z " fill="#EEA25D" transform="translate(405,482)"/>
<path d="M0 0 C1.125 3.75 1.125 3.75 0 6 C0.99 6.66 1.98 7.32 3 8 C0.36 8.66 -2.28 9.32 -5 10 C-3.66511872 6.40608886 -2.03977277 3.24509304 0 0 Z " fill="#EC954A" transform="translate(21,463)"/>
<path d="M0 0 C0.99 0.33 1.98 0.66 3 1 C1.69161864 3.002807 0.37857806 5.00226099 -0.9375 7 C-1.49727539 7.85851562 -1.49727539 7.85851562 -2.06835938 8.734375 C-3.01944589 10.17385729 -4.00694276 11.58914489 -5 13 C-5.33 13 -5.66 13 -6 13 C-6 11.35 -6 9.7 -6 8 C-5.34 8 -4.68 8 -4 8 C-4 7.34 -4 6.68 -4 6 C-3.34 6 -2.68 6 -2 6 C-2 5.01 -2 4.02 -2 3 C-1.34 3 -0.68 3 0 3 C0 2.01 0 1.02 0 0 Z " fill="#F0A35C" transform="translate(133,441)"/>
<path d="M0 0 C2.97 0 5.94 0 9 0 C6.37575342 1.74949772 4.44272784 2.65389981 1.5 3.625 C0.33984375 4.01558594 0.33984375 4.01558594 -0.84375 4.4140625 C-3 5 -3 5 -6 5 C-6 4.34 -6 3.68 -6 3 C-4.02 2.67 -2.04 2.34 0 2 C0 1.34 0 0.68 0 0 Z " fill="#EEA25C" transform="translate(449,465)"/>
<path d="M0 0 C0.93423645 3.01031744 1.04449911 3.86650268 0 7 C-0.99 7 -1.98 7 -3 7 C-3 7.99 -3 8.98 -3 10 C-3.66 10 -4.32 10 -5 10 C-5.66 11.32 -6.32 12.64 -7 14 C-7 10.11708254 -5.62139506 8.53247465 -3.5 5.3125 C-2.8503125 4.31863281 -2.200625 3.32476562 -1.53125 2.30078125 C-0.77328125 1.16189453 -0.77328125 1.16189453 0 0 Z " fill="#F0A661" transform="translate(208,173)"/>
<path d="M0 0 C1.125 3.75 1.125 3.75 0 6 C-0.66 6 -1.32 6 -2 6 C-1.67 7.65 -1.34 9.3 -1 11 C-2.65 11 -4.3 11 -6 11 C-4.54955729 6.89041233 -2.48889248 3.56741255 0 0 Z " fill="#F19C53" transform="translate(101,339)"/>
<path d="M0 0 C0.66 1.32 1.32 2.64 2 4 C0.68 4.33 -0.64 4.66 -2 5 C-2 6.98 -2 8.96 -2 11 C-2.99 11.33 -3.98 11.66 -5 12 C-5 7.86021808 -4.67617664 7.01426496 -2.5 3.75 C-2.0359375 3.04359375 -1.571875 2.3371875 -1.09375 1.609375 C-0.7328125 1.07828125 -0.371875 0.5471875 0 0 Z " fill="#F19D54" transform="translate(150,263)"/>
<path d="M0 0 C0.66 0.99 1.32 1.98 2 3 C1.67 3.61875 1.34 4.2375 1 4.875 C-0.14193235 6.91018344 -0.14193235 6.91018344 0 9 C-1.98 9.66 -3.96 10.32 -6 11 C-4.54955729 6.89041233 -2.48889248 3.56741255 0 0 Z " fill="#F09E54" transform="translate(199,187)"/>
<path d="M0 0 C1.79378179 2.69067269 2.97313958 5.08578257 4.1875 8.0625 C4.55230469 8.94035156 4.91710937 9.81820312 5.29296875 10.72265625 C6 13 6 13 5 15 C2.40831762 13.70415881 2.07457803 12.66348399 1 10 C0.5859375 7.421875 0.5859375 7.421875 0.375 4.75 C0.30023438 3.85796875 0.22546875 2.9659375 0.1484375 2.046875 C0.09945313 1.37140625 0.05046875 0.6959375 0 0 Z " fill="#ECA05C" transform="translate(306,146)"/>
<path d="M0 0 C-2.79916389 1.86610926 -4.81938269 2.68785383 -8 3.625 C-9.299375 4.01558594 -9.299375 4.01558594 -10.625 4.4140625 C-13 5 -13 5 -16 5 C-15.67 4.01 -15.34 3.02 -15 2 C-13.43883181 1.66048381 -11.87598662 1.32867456 -10.3125 1 C-9.44238281 0.814375 -8.57226562 0.62875 -7.67578125 0.4375 C-5.06287036 0.01027953 -2.64186962 -0.07616201 0 0 Z " fill="#EEA25E" transform="translate(427,475)"/>
<path d="M0 0 C2.11044382 3.16566573 2.75552077 5.51197415 3.625 9.1875 C3.88539063 10.27417969 4.14578125 11.36085938 4.4140625 12.48046875 C4.60742188 13.31191406 4.80078125 14.14335937 5 15 C3.046875 14.4140625 3.046875 14.4140625 1 13 C0.390625 9.9609375 0.390625 9.9609375 0.25 6.375 C0.19328125 5.18648438 0.1365625 3.99796875 0.078125 2.7734375 C0.05234375 1.85820312 0.0265625 0.94296875 0 0 Z " fill="#F0A660" transform="translate(486,413)"/>
<path d="M0 0 C2.45823172 3.68734758 3.01242616 6.69699971 4 11 C2.35 10.67 0.7 10.34 -1 10 C-0.67 6.7 -0.34 3.4 0 0 Z " fill="#F29B51" transform="translate(491,429)"/>
<path d="M0 0 C0.66 0 1.32 0 2 0 C3.46726798 3.81489674 2.43336419 6.29011622 1 10 C1.66 10.33 2.32 10.66 3 11 C2.34 11.66 1.68 12.32 1 13 C-1.48887372 8.31506124 -0.85687773 5.0555786 0 0 Z " fill="#F0913C" transform="translate(322,418)"/>
<path d="M0 0 C0.75 1.5625 0.75 1.5625 1 4 C-0.13084437 6.50286409 -1.52139516 8.67007722 -3 11 C-3.99 11 -4.98 11 -6 11 C-4.54955729 6.89041233 -2.48889248 3.56741255 0 0 Z " fill="#F0A058" transform="translate(108,328)"/>
<path d="M0 0 C3 1 3 1 4.1875 3.1875 C5.07334979 6.25390311 5.14770318 8.82438155 5 12 C2.65085508 9.65085508 2.26859643 8.04320554 1.375 4.875 C1.11460937 3.96492188 0.85421875 3.05484375 0.5859375 2.1171875 C0.39257812 1.41851562 0.19921875 0.71984375 0 0 Z " fill="#F0A35E" transform="translate(324,432)"/>
<path d="M0 0 C1.32 0.33 2.64 0.66 4 1 C4.33 4.63 4.66 8.26 5 12 C3.20931427 9.3139714 2.33944209 7.3373411 1.375 4.3125 C1.11460937 3.50425781 0.85421875 2.69601562 0.5859375 1.86328125 C0.39257812 1.24839844 0.19921875 0.63351562 0 0 Z " fill="#EE9D56" transform="translate(303,379)"/>
<path d="M0 0 C0.66 0 1.32 0 2 0 C2 0.66 2 1.32 2 2 C2.99 2 3.98 2 5 2 C4.67 4.64 4.34 7.28 4 10 C1.81024227 6.71536341 1.00193437 3.79303725 0 0 Z " fill="#F09B4E" transform="translate(296,361)"/>
<path d="M0 0 C-1.63344833 3.26689665 -3.69395418 6.34697709 -7 8 C-7.33 6.02 -7.66 4.04 -8 2 C-4.91190305 0.23537317 -3.76687864 0 0 0 Z " fill="#F4A45E" transform="translate(258,263)"/>
<path d="M0 0 C0.99 0.66 1.98 1.32 3 2 C1.6062718 6.43458973 -0.60582235 8.87378374 -4 12 C-4 11.01 -4 10.02 -4 9 C-3.34 9 -2.68 9 -2 9 C-2 8.01 -2 7.02 -2 6 C-1.34 6 -0.68 6 0 6 C0 4.02 0 2.04 0 0 Z " fill="#F0A663" transform="translate(147,418)"/>
<path d="M0 0 C1.4783226 2.95664519 1.06032783 5.74229737 1 9 C0.01 8.67 -0.98 8.34 -2 8 C-2.99 8.33 -3.98 8.66 -5 9 C-3.7508258 5.54074837 -2.32472205 2.85306797 0 0 Z " fill="#F29D53" transform="translate(27,454)"/>
<path d="M0 0 C0.33 0.66 0.66 1.32 1 2 C-1.19566645 8.47143795 -1.19566645 8.47143795 -4.1875 10.4375 C-5.0846875 10.7159375 -5.0846875 10.7159375 -6 11 C-4.54955729 6.89041233 -2.48889248 3.56741255 0 0 Z " fill="#EEA464" transform="translate(177,221)"/>
<path d="M0 0 C2.18975773 3.28463659 2.99806563 6.20696275 4 10 C2.68 10 1.36 10 0 10 C0 6.7 0 3.4 0 0 Z " fill="#F29D52" transform="translate(403,390)"/>
<path d="M0 0 C0.66 0 1.32 0 2 0 C2.75 1.75 2.75 1.75 3 4 C1.0625 6.25 1.0625 6.25 -1 8 C-1.04241723 5.66705225 -1.04092937 3.33297433 -1 1 C-0.67 0.67 -0.34 0.34 0 0 Z " fill="#F4994B" transform="translate(124,452)"/>
<path d="M0 0 C0.99 0.33 1.98 0.66 3 1 C1.02 3.97 1.02 3.97 -1 7 C-1.66 6.01 -2.32 5.02 -3 4 C-2.67 3.01 -2.34 2.02 -2 1 C-1.34 0.67 -0.68 0.34 0 0 Z " fill="#F39644" transform="translate(181,370)"/>
<path d="M0 0 C0.33 1.32 0.66 2.64 1 4 C0.01 4.33 -0.98 4.66 -2 5 C-3.22520264 8.00847418 -3.22520264 8.00847418 -4 11 C-4.66 11 -5.32 11 -6 11 C-4.54955729 6.89041233 -2.48889248 3.56741255 0 0 Z " fill="#F0A96A" transform="translate(132,291)"/>
<path d="M0 0 C0.99 0 1.98 0 3 0 C3.33 3.3 3.66 6.6 4 10 C1.81024227 6.71536341 1.00193437 3.79303725 0 0 Z " fill="#EFA15C" transform="translate(332,452)"/>
<path d="M0 0 C0.75 1.6875 0.75 1.6875 1 4 C-0.8125 6.75 -0.8125 6.75 -3 9 C-3.66 9 -4.32 9 -5 9 C-3.7508258 5.54074837 -2.32472205 2.85306797 0 0 Z " fill="#EDA360" transform="translate(65,395)"/>
<path d="M0 0 C0.99 0 1.98 0 3 0 C4.125 2.8125 4.125 2.8125 5 6 C4.01 7.485 4.01 7.485 3 9 C2.01 6.03 1.02 3.06 0 0 Z " fill="#EFA45F" transform="translate(308,392)"/>
<path d="M0 0 C0.6875 1.75 0.6875 1.75 1 4 C-0.3125 6.25 -0.3125 6.25 -2 8 C-2.66 8 -3.32 8 -4 8 C-2.87548273 5.0280615 -1.77706209 2.66559313 0 0 Z " fill="#EEA25D" transform="translate(32,446)"/>
<path d="M0 0 C1.32 0.66 2.64 1.32 4 2 C2.69593116 4.01920337 1.36176581 6.01924973 0 8 C-0.33 8 -0.66 8 -1 8 C-1.04241723 5.66705225 -1.04092937 3.33297433 -1 1 C-0.67 0.67 -0.34 0.34 0 0 Z " fill="#F09C56" transform="translate(164,393)"/>
<path d="M0 0 C2.18975773 3.28463659 2.99806563 6.20696275 4 10 C2.68 9.34 1.36 8.68 0 8 C0 5.36 0 2.72 0 0 Z " fill="#F0A058" transform="translate(393,365)"/>
<path d="M0 0 C0.6875 1.75 0.6875 1.75 1 4 C-0.3125 6.25 -0.3125 6.25 -2 8 C-2.66 8 -3.32 8 -4 8 C-2.87548273 5.0280615 -1.77706209 2.66559313 0 0 Z " fill="#F0A15F" transform="translate(170,232)"/>
<path d="M0 0 C2.18975773 3.28463659 2.99806563 6.20696275 4 10 C2.68 9.34 1.36 8.68 0 8 C0 5.36 0 2.72 0 0 Z " fill="#F1A761" transform="translate(295,118)"/>
<path d="M0 0 C0.33 0 0.66 0 1 0 C1 2.97 1 5.94 1 9 C-0.65 9.33 -2.3 9.66 -4 10 C-3.67 9.01 -3.34 8.02 -3 7 C-2.01 7 -1.02 7 0 7 C0 4.69 0 2.38 0 0 Z " fill="#EF9445" transform="translate(495,445)"/>
<path d="M0 0 C2.18975773 3.28463659 2.99806563 6.20696275 4 10 C3.01 10 2.02 10 1 10 C0.67 6.7 0.34 3.4 0 0 Z " fill="#F1A666" transform="translate(320,181)"/>
<path d="M0 0 C2.18975773 3.28463659 2.99806563 6.20696275 4 10 C3.01 9.67 2.02 9.34 1 9 C0.67 6.03 0.34 3.06 0 0 Z " fill="#ECA568" transform="translate(316,171)"/>
<path d="M0 0 C2.18975773 3.28463659 2.99806563 6.20696275 4 10 C3.01 10 2.02 10 1 10 C0.67 6.7 0.34 3.4 0 0 Z " fill="#EFA360" transform="translate(312,161)"/>
<path d="M0 0 C0.99 0.33 1.98 0.66 3 1 C0.525 4.465 0.525 4.465 -2 8 C-2.33 6.68 -2.66 5.36 -3 4 C-2.01 3.67 -1.02 3.34 0 3 C0 2.01 0 1.02 0 0 Z " fill="#EDA866" transform="translate(155,409)"/>
<path d="M0 0 C0.66 1.32 1.32 2.64 2 4 C2.66 4 3.32 4 4 4 C4.33 3.34 4.66 2.68 5 2 C4.67 3.32 4.34 4.64 4 6 C2.68 5.67 1.36 5.34 0 5 C-0.5625 3.0625 -0.5625 3.0625 -1 1 C-0.67 0.67 -0.34 0.34 0 0 Z " fill="#F19442" transform="translate(313,401)"/>
<path d="M0 0 C0.99 0.33 1.98 0.66 3 1 C3.33 2.65 3.66 4.3 4 6 C2.35 5.01 0.7 4.02 -1 3 C-0.67 2.01 -0.34 1.02 0 0 Z " fill="#F19442" transform="translate(374,321)"/>
<path d="M0 0 C2.6855594 2.6855594 3.06049974 5.37621328 4 9 C3.01 8.67 2.02 8.34 1 8 C0.67 5.36 0.34 2.72 0 0 Z " fill="#EEA05B" transform="translate(330,207)"/>
</svg>
